<svg width="12" height="12" viewBox="0 0 10 10" fill="none" xmlns="http://www.w3.org/2000/svg">
<path d="M8.88889 0C9.18357 0 9.46619 0.117063 9.67456 0.325437C9.88294 0.533811 10 0.816426 10 1.11111V8.88889C10 9.18357 9.88294 9.46619 9.67456 9.67456C9.46619 9.88294 9.18357 10 8.88889 10H1.11111C0.816426 10 0.533811 9.88294 0.325437 9.67456C0.117063 9.46619 0 9.18357 0 8.88889V1.11111C0 0.816426 0.117063 0.533811 0.325437 0.325437C0.533811 0.117063 0.816426 0 1.11111 0H8.88889ZM8.61111 8.61111V5.66667C8.61111 5.18633 8.4203 4.72567 8.08065 4.38602C7.741 4.04637 7.28034 3.85556 6.8 3.85556C6.32778 3.85556 5.77778 4.14444 5.51111 4.57778V3.96111H3.96111V8.61111H5.51111V5.87222C5.51111 5.44444 5.85556 5.09444 6.28333 5.09444C6.48961 5.09444 6.68744 5.17639 6.83331 5.32225C6.97917 5.46811 7.06111 5.66594 7.06111 5.87222V8.61111H8.61111ZM2.15556 3.08889C2.40309 3.08889 2.64049 2.99056 2.81552 2.81552C2.99056 2.64049 3.08889 2.40309 3.08889 2.15556C3.08889 1.63889 2.67222 1.21667 2.15556 1.21667C1.90655 1.21667 1.66774 1.31559 1.49166 1.49166C1.31559 1.66774 1.21667 1.90655 1.21667 2.15556C1.21667 2.67222 1.63889 3.08889 2.15556 3.08889ZM2.92778 8.61111V3.96111H1.38889V8.61111H2.92778Z" fill="#343456"/>
</svg>
